<?xml version="1.0" encoding="UTF-8" standalone="no"?>
<!-- Created with Inkscape (http://www.inkscape.org/) -->

<svg
   version="1.1"
   id="svg2"
   xml:space="preserve"
   width="222"
   height="222"
   viewBox="0 0 222 222"
   sodipodi:docname="logo.svg"
   inkscape:version="1.2.2 (732a01da63, 2022-12-09, custom)"
   inkscape:export-filename="../aa2b5aa0/icon.png"
   inkscape:export-xdpi="216.21623"
   inkscape:export-ydpi="216.21623"
   xmlns:inkscape="http://www.inkscape.org/namespaces/inkscape"
   xmlns:sodipodi="http://sodipodi.sourceforge.net/DTD/sodipodi-0.dtd"
   xmlns="http://www.w3.org/2000/svg"
   xmlns:svg="http://www.w3.org/2000/svg"><defs
     id="defs6" /><sodipodi:namedview
     id="namedview4"
     pagecolor="#ffffff"
     bordercolor="#666666"
     borderopacity="1.0"
     inkscape:pageshadow="2"
     inkscape:pageopacity="0.0"
     inkscape:pagecheckerboard="0"
     showgrid="false"
     inkscape:zoom="3.313294"
     inkscape:cx="99.900583"
     inkscape:cy="118.16036"
     inkscape:window-width="2490"
     inkscape:window-height="1369"
     inkscape:window-x="70"
     inkscape:window-y="34"
     inkscape:window-maximized="1"
     inkscape:current-layer="g8"
     fit-margin-top="0"
     fit-margin-left="0"
     fit-margin-right="0"
     fit-margin-bottom="0"
     inkscape:snap-page="false"
     showguides="false"
     inkscape:showpageshadow="0"
     inkscape:deskcolor="#d1d1d1" /><g
     id="g8"
     inkscape:groupmode="layer"
     inkscape:label="Logo IEA gold"
     transform="matrix(1.3333333,0,0,-1.3333333,-104.3932,343.66039)"><g
       id="g70259"
       transform="matrix(0.73137076,0,0,0.73137076,43.315878,37.841777)"
       style="fill:#757575;fill-opacity:0.27451" /><g
       aria-label="IEA"
       transform="matrix(1.1681872,0,0,-1.1681872,-28.859057,-34.391602)"
       id="text5386"
       style="font-weight:bold;font-size:42px;line-height:1.25;font-family:'Bodoni Moda';-inkscape-font-specification:'Bodoni Moda Bold';fill:#757575;fill-opacity:0.27451;stroke-width:0.442254" /><g
       id="g2831"
       transform="translate(0,6.524659)"><g
         aria-label="PPIAS"
         transform="matrix(0.80976116,0,0,-0.80976116,17.256166,35.286114)"
         id="text3252"
         style="font-size:49.3973px;line-height:1.25;font-family:'Open Sans Condensed';-inkscape-font-specification:'Open Sans Condensed, ';fill:#000000;fill-opacity:1;stroke-width:0.926199"><g
           aria-label="PFIAS"
           id="text1140"
           style="line-height:0.9;font-family:Petrona;-inkscape-font-specification:Petrona;stroke-width:0.857845"><g
             id="g2273"><path
               d="m 120.65816,-227.19483 q 4.44576,0 7.2861,1.33373 2.84035,1.30903 4.19877,3.7048 1.35843,2.39577 1.35843,5.60659 0,3.21083 -1.35843,5.5572 -1.35842,2.32167 -4.19877,3.5813 -2.84034,1.25963 -7.2861,1.25963 h -5.409 v 15.04148 h 4.42106 v 0.96325 h -13.58426 v -0.96325 h 4.44576 v -35.12148 h -4.44576 v -0.96325 z m -5.409,20.08001 h 5.409 q 1.75361,0 3.13673,-0.83976 1.38312,-0.83975 2.32167,-2.22288 0.96325,-1.38312 1.45722,-3.03793 0.49398,-1.67951 0.49398,-3.33432 0,-1.65481 -0.49398,-3.35901 -0.49397,-1.70421 -1.45722,-3.13673 -0.93855,-1.43252 -2.32167,-2.29698 -1.38312,-0.88915 -3.13673,-0.88915 h -5.409 z"
               style="font-family:'Bodoni Moda';-inkscape-font-specification:'Bodoni Moda'"
               id="path1255" /><path
               d="m 155.088,-203.38533 q 0,-1.65481 -0.64217,-2.69215 -0.61746,-1.03734 -1.95119,-1.53132 -1.33373,-0.49397 -3.48251,-0.49397 h -3.23552 v -0.93855 h 3.23552 q 2.14878,0 3.48251,-0.41988 1.33373,-0.44457 1.95119,-1.40782 0.64217,-0.96325 0.64217,-2.61806 h 0.98794 v 10.10175 z m 8.39754,-23.8095 v 10.12645 h -0.96325 q 0,-2.64276 -0.76566,-4.71744 -0.76566,-2.07469 -2.49456,-3.26022 -1.70421,-1.18554 -4.59395,-1.18554 h -7.87887 v 35.12148 h 4.91503 v 0.96325 h -14.07823 v -0.96325 h 4.44576 v -35.12148 h -4.44576 v -0.96325 z"
               style="font-family:'Bodoni Moda';-inkscape-font-specification:'Bodoni Moda'"
               id="path1257" /><path
               d="m 167.1903,-190.14685 v -0.96325 h 5.4337 v -35.12148 h -5.4337 v -0.96325 h 16.05412 v 0.96325 h -5.92768 v 35.12148 h 5.92768 v 0.96325 z"
               style="font-family:'Bodoni Moda';-inkscape-font-specification:'Bodoni Moda'"
               id="path1259" /><path
               d="m 195.44551,-201.73052 v -0.96324 h 16.00473 v 0.96324 z m 9.33609,-26.18057 12.74451,36.80099 h 3.85299 v 0.96325 h -14.32522 v -0.96325 h 5.06322 l -9.70657,-30.05826 -10.47223,30.05826 h 5.23612 v 0.96325 h -10.86741 v -0.96325 h 4.51986 l 12.94209,-36.80099 z"
               style="font-family:'Bodoni Moda';-inkscape-font-specification:'Bodoni Moda'"
               id="path1261" /><path
               d="m 238.22355,-189.43059 q -3.18613,0 -5.5078,-0.98795 -2.32167,-1.01264 -3.87769,-2.71685 l -2.29697,3.48251 h -0.83976 v -10.15114 h 0.96325 q 0.39518,2.02529 1.25963,3.72949 0.86445,1.70421 2.22288,2.96384 1.38312,1.25963 3.26022,1.97589 1.9018,0.69157 4.37166,0.69157 2.61806,0 4.51986,-0.88916 1.92649,-0.88915 2.96383,-2.56866 1.03735,-1.7042 1.03735,-4.14937 0,-2.17348 -1.06204,-3.6554 -1.06205,-1.50662 -2.84035,-2.59336 -1.7536,-1.11144 -3.85299,-2.02529 -2.09938,-0.93855 -4.19877,-1.95119 -2.09939,-1.01264 -3.85299,-2.34637 -1.7536,-1.35843 -2.84034,-3.26022 -1.06205,-1.9265 -1.06205,-4.66805 0,-2.71685 1.38313,-4.76684 1.38312,-2.07468 3.7048,-3.21082 2.32167,-1.16084 5.16201,-1.16084 2.44517,0 4.47046,0.79036 2.04999,0.76566 3.5813,2.34637 l 2.29698,-3.13673 h 0.81505 v 10.15115 h -0.93854 q -0.49398,-3.08734 -1.8771,-5.08793 -1.35843,-2.02529 -3.38372,-2.98853 -2.00059,-0.98795 -4.49515,-0.98795 -3.53191,0 -5.35961,1.67951 -1.803,1.65481 -1.803,4.39636 0,1.97589 1.03734,3.33432 1.06204,1.35842 2.79095,2.37107 1.72891,1.01264 3.80359,1.92649 2.07469,0.91385 4.14938,1.97589 2.07468,1.06205 3.80359,2.49457 1.7289,1.40782 2.76625,3.45781 1.06204,2.02529 1.06204,4.93973 0,3.21082 -1.38313,5.60659 -1.38312,2.37107 -3.92708,3.6801 -2.54396,1.30903 -6.02647,1.30903 z"
               style="font-family:'Bodoni Moda';-inkscape-font-specification:'Bodoni Moda'"
               id="path1263" /></g><g
             id="g2266"
             transform="matrix(0.92619905,0,0,0.92619905,131.87683,-173.96912)"><g
               id="g1991"><g
                 id="g1989"><g
                   id="g1479"><path
                     d="m 97.759,25.645 c -1.214,0 -2.198,-0.989 -2.198,-2.201 0,-1.215 0.984,-2.2 2.198,-2.2 1.216,0 2.201,0.984 2.201,2.2 0,1.211 -0.985,2.201 -2.201,2.201 z"
                     id="path1471" /><circle
                     cx="97.759003"
                     cy="28.754"
                     r="2.198"
                     id="circle1473" /><circle
                     cx="97.759003"
                     cy="34.064999"
                     r="2.198"
                     id="circle1475" /><circle
                     cx="97.759003"
                     cy="39.376999"
                     r="2.1989999"
                     id="circle1477" /></g><g
                   id="g1497"><path
                     d="m 92.452,25.645 c -1.216,0 -2.196,-0.989 -2.196,-2.201 0,-1.215 0.98,-2.2 2.196,-2.2 1.215,0 2.198,0.984 2.198,2.2 0,1.211 -0.983,2.201 -2.198,2.201 z"
                     id="path1481" /><circle
                     cx="92.452003"
                     cy="28.754"
                     r="2.198"
                     id="circle1483" /><circle
                     cx="92.452003"
                     cy="34.064999"
                     r="2.198"
                     id="circle1485" /><circle
                     cx="92.452003"
                     cy="39.376999"
                     r="2.1989999"
                     id="circle1487" /><path
                     d="m 92.452,57.511 c -1.216,0 -2.196,-0.985 -2.196,-2.202 0,-1.214 0.98,-2.195 2.196,-2.195 1.215,0 2.198,0.981 2.198,2.195 0,1.214 -0.983,2.202 -2.198,2.202 z"
                     id="path1489" /><circle
                     cx="92.452003"
                     cy="60.623001"
                     r="2.2"
                     id="circle1491" /><circle
                     cx="92.452003"
                     cy="65.933998"
                     r="2.1989999"
                     id="circle1493" /><circle
                     cx="92.452003"
                     cy="71.245003"
                     r="2.2"
                     id="circle1495" /></g><g
                   id="g1519"><circle
                     cx="87.146004"
                     cy="18.132"
                     r="2.2"
                     id="circle1499" /><path
                     d="m 87.146,25.645 c -1.215,0 -2.201,-0.989 -2.201,-2.201 0,-1.215 0.986,-2.2 2.201,-2.2 1.215,0 2.199,0.984 2.199,2.2 0.001,1.211 -0.984,2.201 -2.199,2.201 z"
                     id="path1501" /><circle
                     cx="87.146004"
                     cy="28.754"
                     r="2.198"
                     id="circle1503" /><circle
                     cx="87.146004"
                     cy="34.064999"
                     r="2.198"
                     id="circle1505" /><circle
                     cx="87.146004"
                     cy="39.376999"
                     r="2.1989999"
                     id="circle1507" /><path
                     d="m 87.146,46.886 c -1.215,0 -2.201,-0.982 -2.201,-2.196 0,-1.217 0.986,-2.2 2.201,-2.2 1.215,0 2.199,0.983 2.199,2.2 0.001,1.213 -0.984,2.196 -2.199,2.196 z"
                     id="path1509" /><path
                     d="m 87.146,57.511 c -1.215,0 -2.201,-0.985 -2.201,-2.202 0,-1.214 0.986,-2.195 2.201,-2.195 1.215,0 2.199,0.981 2.199,2.195 0.001,1.214 -0.984,2.202 -2.199,2.202 z"
                     id="path1511" /><circle
                     cx="87.146004"
                     cy="60.623001"
                     r="2.2"
                     id="circle1513" /><circle
                     cx="87.146004"
                     cy="65.933998"
                     r="2.1989999"
                     id="circle1515" /><circle
                     cx="87.146004"
                     cy="71.245003"
                     r="2.2"
                     id="circle1517" /></g><g
                   id="g1543"><circle
                     cx="81.839996"
                     cy="18.132"
                     r="2.2"
                     id="circle1521" /><path
                     d="m 81.84,25.645 c -1.214,0 -2.199,-0.989 -2.199,-2.201 0,-1.215 0.985,-2.2 2.199,-2.2 1.213,0 2.199,0.984 2.199,2.2 0,1.211 -0.986,2.201 -2.199,2.201 z"
                     id="path1523" /><circle
                     cx="81.839996"
                     cy="28.754"
                     r="2.198"
                     id="circle1525" /><circle
                     cx="81.839996"
                     cy="34.064999"
                     r="2.198"
                     id="circle1527" /><circle
                     cx="81.839996"
                     cy="39.376999"
                     r="2.1989999"
                     id="circle1529" /><path
                     d="m 81.84,46.886 c -1.214,0 -2.199,-0.982 -2.199,-2.196 0,-1.217 0.985,-2.2 2.199,-2.2 1.213,0 2.199,0.983 2.199,2.2 0,1.213 -0.986,2.196 -2.199,2.196 z"
                     id="path1531" /><circle
                     cx="81.839996"
                     cy="50"
                     r="2.2"
                     id="circle1533" /><path
                     d="m 81.84,57.511 c -1.214,0 -2.199,-0.985 -2.199,-2.202 0,-1.214 0.985,-2.195 2.199,-2.195 1.213,0 2.199,0.981 2.199,2.195 0,1.214 -0.986,2.202 -2.199,2.202 z"
                     id="path1535" /><circle
                     cx="81.839996"
                     cy="60.623001"
                     r="2.2"
                     id="circle1537" /><circle
                     cx="81.839996"
                     cy="65.933998"
                     r="2.1989999"
                     id="circle1539" /><circle
                     cx="81.839996"
                     cy="71.245003"
                     r="2.2"
                     id="circle1541" /></g><g
                   id="g1569"><path
                     d="m 76.531,15.019 c -1.213,0 -2.195,-0.986 -2.195,-2.199 0,-1.215 0.982,-2.199 2.195,-2.199 1.217,0 2.199,0.984 2.199,2.199 0,1.213 -0.982,2.199 -2.199,2.199 z"
                     id="path1545" /><path
                     d="m 76.531,20.332 c -1.213,0 -2.195,-0.986 -2.195,-2.2 0,-1.216 0.982,-2.201 2.195,-2.201 1.217,0 2.199,0.984 2.199,2.201 0,1.214 -0.982,2.2 -2.199,2.2 z"
                     id="path1547" /><path
                     d="m 76.531,25.645 c -1.213,0 -2.195,-0.989 -2.195,-2.201 0,-1.215 0.982,-2.2 2.195,-2.2 1.217,0 2.199,0.984 2.199,2.2 0,1.211 -0.982,2.201 -2.199,2.201 z"
                     id="path1549" /><path
                     d="m 76.531,30.953 c -1.213,0 -2.195,-0.984 -2.195,-2.198 0,-1.217 0.982,-2.199 2.195,-2.199 1.217,0 2.199,0.982 2.199,2.199 0,1.213 -0.982,2.198 -2.199,2.198 z"
                     id="path1551" /><path
                     d="m 76.531,36.264 c -1.213,0 -2.195,-0.986 -2.195,-2.199 0,-1.213 0.982,-2.198 2.195,-2.198 1.217,0 2.199,0.984 2.199,2.198 0,1.214 -0.982,2.199 -2.199,2.199 z"
                     id="path1553" /><path
                     d="m 76.531,41.577 c -1.213,0 -2.195,-0.986 -2.195,-2.2 0,-1.216 0.982,-2.199 2.195,-2.199 1.217,0 2.199,0.983 2.199,2.199 0,1.213 -0.982,2.2 -2.199,2.2 z"
                     id="path1555" /><path
                     d="m 76.531,46.886 c -1.213,0 -2.195,-0.982 -2.195,-2.196 0,-1.217 0.982,-2.2 2.195,-2.2 1.217,0 2.199,0.983 2.199,2.2 0,1.213 -0.982,2.196 -2.199,2.196 z"
                     id="path1557" /><path
                     d="m 76.531,52.199 c -1.213,0 -2.195,-0.986 -2.195,-2.2 0,-1.215 0.982,-2.2 2.195,-2.2 1.217,0 2.199,0.984 2.199,2.2 0,1.214 -0.982,2.2 -2.199,2.2 z"
                     id="path1559" /><path
                     d="m 76.531,57.511 c -1.213,0 -2.195,-0.985 -2.195,-2.202 0,-1.214 0.982,-2.195 2.195,-2.195 1.217,0 2.199,0.981 2.199,2.195 0,1.214 -0.982,2.202 -2.199,2.202 z"
                     id="path1561" /><path
                     d="m 76.531,62.822 c -1.213,0 -2.195,-0.983 -2.195,-2.2 0,-1.216 0.982,-2.199 2.195,-2.199 1.217,0 2.199,0.983 2.199,2.199 0,1.217 -0.982,2.2 -2.199,2.2 z"
                     id="path1563" /><path
                     d="m 76.531,68.133 c -1.213,0 -2.195,-0.986 -2.195,-2.199 0,-1.217 0.982,-2.199 2.195,-2.199 1.217,0 2.199,0.982 2.199,2.199 0,1.212 -0.982,2.199 -2.199,2.199 z"
                     id="path1565" /><path
                     d="m 76.531,73.443 c -1.213,0 -2.195,-0.985 -2.195,-2.198 0,-1.214 0.982,-2.2 2.195,-2.2 1.217,0 2.199,0.986 2.199,2.2 0,1.213 -0.982,2.198 -2.199,2.198 z"
                     id="path1567" /></g><g
                   id="g1597"><path
                     d="m 71.227,9.707 c -1.213,0 -2.197,-0.983 -2.197,-2.198 0,-1.213 0.984,-2.2 2.197,-2.2 1.217,0 2.2,0.986 2.2,2.2 0,1.215 -0.984,2.198 -2.2,2.198 z"
                     id="path1571" /><path
                     d="m 71.227,15.019 c -1.213,0 -2.197,-0.986 -2.197,-2.199 0,-1.215 0.984,-2.199 2.197,-2.199 1.217,0 2.2,0.984 2.2,2.199 0,1.213 -0.984,2.199 -2.2,2.199 z"
                     id="path1573" /><path
                     d="m 71.227,20.332 c -1.213,0 -2.197,-0.986 -2.197,-2.2 0,-1.216 0.984,-2.201 2.197,-2.201 1.217,0 2.2,0.984 2.2,2.201 0,1.214 -0.984,2.2 -2.2,2.2 z"
                     id="path1575" /><path
                     d="m 71.227,25.645 c -1.213,0 -2.197,-0.989 -2.197,-2.201 0,-1.215 0.984,-2.2 2.197,-2.2 1.217,0 2.2,0.984 2.2,2.2 0,1.211 -0.984,2.201 -2.2,2.201 z"
                     id="path1577" /><path
                     d="m 71.227,30.953 c -1.213,0 -2.197,-0.984 -2.197,-2.198 0,-1.217 0.984,-2.199 2.197,-2.199 1.217,0 2.2,0.982 2.2,2.199 0,1.213 -0.984,2.198 -2.2,2.198 z"
                     id="path1579" /><path
                     d="m 71.227,36.264 c -1.213,0 -2.197,-0.986 -2.197,-2.199 0,-1.213 0.984,-2.198 2.197,-2.198 1.217,0 2.2,0.984 2.2,2.198 0,1.214 -0.984,2.199 -2.2,2.199 z"
                     id="path1581" /><path
                     d="m 71.227,41.577 c -1.213,0 -2.197,-0.986 -2.197,-2.2 0,-1.216 0.984,-2.199 2.197,-2.199 1.217,0 2.2,0.983 2.2,2.199 0,1.213 -0.984,2.2 -2.2,2.2 z"
                     id="path1583" /><path
                     d="m 71.227,46.886 c -1.213,0 -2.197,-0.982 -2.197,-2.196 0,-1.217 0.984,-2.2 2.197,-2.2 1.217,0 2.2,0.983 2.2,2.2 0,1.213 -0.984,2.196 -2.2,2.196 z"
                     id="path1585" /><path
                     d="m 71.227,52.199 c -1.213,0 -2.197,-0.986 -2.197,-2.2 0,-1.215 0.984,-2.2 2.197,-2.2 1.217,0 2.2,0.984 2.2,2.2 0,1.214 -0.984,2.2 -2.2,2.2 z"
                     id="path1587" /><path
                     d="m 71.227,57.511 c -1.213,0 -2.197,-0.985 -2.197,-2.202 0,-1.214 0.984,-2.195 2.197,-2.195 1.217,0 2.2,0.981 2.2,2.195 0,1.214 -0.984,2.202 -2.2,2.202 z"
                     id="path1589" /><path
                     d="m 71.227,62.822 c -1.213,0 -2.197,-0.983 -2.197,-2.2 0,-1.216 0.984,-2.199 2.197,-2.199 1.217,0 2.2,0.983 2.2,2.199 0,1.217 -0.984,2.2 -2.2,2.2 z"
                     id="path1591" /><path
                     d="m 71.227,68.133 c -1.213,0 -2.197,-0.986 -2.197,-2.199 0,-1.217 0.984,-2.199 2.197,-2.199 1.217,0 2.2,0.982 2.2,2.199 0,1.212 -0.984,2.199 -2.2,2.199 z"
                     id="path1593" /><path
                     d="m 71.227,73.443 c -1.213,0 -2.197,-0.985 -2.197,-2.198 0,-1.214 0.984,-2.2 2.197,-2.2 1.217,0 2.2,0.986 2.2,2.2 0,1.213 -0.984,2.198 -2.2,2.198 z"
                     id="path1595" /></g><g
                   id="g1625"><circle
                     cx="65.920998"
                     cy="7.5079999"
                     r="2.1989999"
                     id="circle1599" /><circle
                     cx="65.920998"
                     cy="12.82"
                     r="2.1989999"
                     id="circle1601" /><circle
                     cx="65.920998"
                     cy="18.132"
                     r="2.2"
                     id="circle1603" /><path
                     d="m 65.921,25.645 c -1.215,0 -2.198,-0.989 -2.198,-2.201 0,-1.215 0.983,-2.2 2.198,-2.2 1.216,0 2.197,0.984 2.197,2.2 0,1.211 -0.981,2.201 -2.197,2.201 z"
                     id="path1605" /><circle
                     cx="65.920998"
                     cy="28.754"
                     r="2.198"
                     id="circle1607" /><circle
                     cx="65.920998"
                     cy="34.064999"
                     r="2.198"
                     id="circle1609" /><circle
                     cx="65.920998"
                     cy="39.376999"
                     r="2.1989999"
                     id="circle1611" /><path
                     d="m 65.921,46.886 c -1.215,0 -2.198,-0.982 -2.198,-2.196 0,-1.217 0.983,-2.2 2.198,-2.2 1.216,0 2.197,0.983 2.197,2.2 0,1.213 -0.981,2.196 -2.197,2.196 z"
                     id="path1613" /><circle
                     cx="65.920998"
                     cy="50"
                     r="2.2"
                     id="circle1615" /><path
                     d="m 65.921,57.511 c -1.215,0 -2.198,-0.985 -2.198,-2.202 0,-1.214 0.983,-2.195 2.198,-2.195 1.216,0 2.197,0.981 2.197,2.195 0,1.214 -0.981,2.202 -2.197,2.202 z"
                     id="path1617" /><circle
                     cx="65.920998"
                     cy="60.623001"
                     r="2.2"
                     id="circle1619" /><circle
                     cx="65.920998"
                     cy="65.933998"
                     r="2.1989999"
                     id="circle1621" /><circle
                     cx="65.920998"
                     cy="71.245003"
                     r="2.2"
                     id="circle1623" /></g><g
                   id="g1655"><circle
                     cx="60.611"
                     cy="2.198"
                     r="2.198"
                     id="circle1627" /><circle
                     cx="60.611"
                     cy="7.5079999"
                     r="2.1989999"
                     id="circle1629" /><circle
                     cx="60.611"
                     cy="12.82"
                     r="2.1989999"
                     id="circle1631" /><circle
                     cx="60.611"
                     cy="18.132"
                     r="2.2"
                     id="circle1633" /><path
                     d="m 60.611,25.645 c -1.213,0 -2.198,-0.989 -2.198,-2.201 0,-1.215 0.985,-2.2 2.198,-2.2 1.216,0 2.201,0.984 2.201,2.2 0.001,1.211 -0.985,2.201 -2.201,2.201 z"
                     id="path1635" /><circle
                     cx="60.611"
                     cy="28.754"
                     r="2.198"
                     id="circle1637" /><circle
                     cx="60.611"
                     cy="34.064999"
                     r="2.198"
                     id="circle1639" /><circle
                     cx="60.611"
                     cy="39.376999"
                     r="2.1989999"
                     id="circle1641" /><path
                     d="m 60.611,46.886 c -1.213,0 -2.198,-0.982 -2.198,-2.196 0,-1.217 0.985,-2.2 2.198,-2.2 1.216,0 2.201,0.983 2.201,2.2 0.001,1.213 -0.985,2.196 -2.201,2.196 z"
                     id="path1643" /><circle
                     cx="60.611"
                     cy="50"
                     r="2.2"
                     id="circle1645" /><path
                     d="m 60.611,57.511 c -1.213,0 -2.198,-0.985 -2.198,-2.202 0,-1.214 0.985,-2.195 2.198,-2.195 1.216,0 2.201,0.981 2.201,2.195 0.001,1.214 -0.985,2.202 -2.201,2.202 z"
                     id="path1647" /><circle
                     cx="60.611"
                     cy="60.623001"
                     r="2.2"
                     id="circle1649" /><circle
                     cx="60.611"
                     cy="65.933998"
                     r="2.1989999"
                     id="circle1651" /><circle
                     cx="60.611"
                     cy="71.245003"
                     r="2.2"
                     id="circle1653" /></g><g
                   id="g1685"><circle
                     cx="55.306999"
                     cy="2.198"
                     r="2.198"
                     id="circle1657" /><circle
                     cx="55.306999"
                     cy="7.5079999"
                     r="2.1989999"
                     id="circle1659" /><circle
                     cx="55.306999"
                     cy="12.82"
                     r="2.1989999"
                     id="circle1661" /><circle
                     cx="55.306999"
                     cy="18.132"
                     r="2.2"
                     id="circle1663" /><path
                     d="m 55.307,25.645 c -1.214,0 -2.199,-0.989 -2.199,-2.201 0,-1.215 0.985,-2.2 2.199,-2.2 1.215,0 2.2,0.984 2.2,2.2 0,1.211 -0.986,2.201 -2.2,2.201 z"
                     id="path1665" /><circle
                     cx="55.306999"
                     cy="28.754"
                     r="2.198"
                     id="circle1667" /><circle
                     cx="55.306999"
                     cy="34.064999"
                     r="2.198"
                     id="circle1669" /><circle
                     cx="55.306999"
                     cy="39.376999"
                     r="2.1989999"
                     id="circle1671" /><path
                     d="m 55.307,46.886 c -1.214,0 -2.199,-0.982 -2.199,-2.196 0,-1.217 0.985,-2.2 2.199,-2.2 1.215,0 2.2,0.983 2.2,2.2 0,1.213 -0.986,2.196 -2.2,2.196 z"
                     id="path1673" /><circle
                     cx="55.306999"
                     cy="50"
                     r="2.2"
                     id="circle1675" /><path
                     d="m 55.307,57.511 c -1.214,0 -2.199,-0.985 -2.199,-2.202 0,-1.214 0.985,-2.195 2.199,-2.195 1.215,0 2.2,0.981 2.2,2.195 0,1.214 -0.986,2.202 -2.2,2.202 z"
                     id="path1677" /><circle
                     cx="55.306999"
                     cy="60.623001"
                     r="2.2"
                     id="circle1679" /><circle
                     cx="55.306999"
                     cy="65.933998"
                     r="2.1989999"
                     id="circle1681" /><circle
                     cx="55.306999"
                     cy="71.245003"
                     r="2.2"
                     id="circle1683" /></g><g
                   id="g1689"><circle
                     cx="97.759003"
                     cy="81.866997"
                     r="2.1989999"
                     id="circle1687" /></g><g
                   id="g1697"><circle
                     cx="92.452003"
                     cy="76.556"
                     r="2.1989999"
                     id="circle1691" /><circle
                     cx="92.452003"
                     cy="81.866997"
                     r="2.1989999"
                     id="circle1693" /><circle
                     cx="92.452003"
                     cy="87.178001"
                     r="2.2"
                     id="circle1695" /></g><g
                   id="g1705"><circle
                     cx="87.146004"
                     cy="76.556"
                     r="2.1989999"
                     id="circle1699" /><circle
                     cx="87.146004"
                     cy="81.866997"
                     r="2.1989999"
                     id="circle1701" /><circle
                     cx="87.146004"
                     cy="87.178001"
                     r="2.2"
                     id="circle1703" /></g><g
                   id="g1713"><circle
                     cx="81.839996"
                     cy="76.556"
                     r="2.1989999"
                     id="circle1707" /><circle
                     cx="81.839996"
                     cy="81.866997"
                     r="2.1989999"
                     id="circle1709" /><circle
                     cx="81.839996"
                     cy="87.178001"
                     r="2.2"
                     id="circle1711" /></g><g
                   id="g1721"><path
                     d="m 76.531,78.755 c -1.213,0 -2.195,-0.981 -2.195,-2.198 0,-1.214 0.982,-2.199 2.195,-2.199 1.217,0 2.199,0.985 2.199,2.199 0,1.214 -0.982,2.198 -2.199,2.198 z"
                     id="path1715" /><path
                     d="m 76.531,84.066 c -1.213,0 -2.195,-0.982 -2.195,-2.199 0,-1.215 0.982,-2.199 2.195,-2.199 1.217,0 2.199,0.984 2.199,2.199 0,1.217 -0.982,2.199 -2.199,2.199 z"
                     id="path1717" /><path
                     d="m 76.531,89.378 c -1.213,0 -2.195,-0.983 -2.195,-2.2 0,-1.213 0.982,-2.199 2.195,-2.199 1.217,0 2.199,0.986 2.199,2.199 0,1.217 -0.982,2.2 -2.199,2.2 z"
                     id="path1719" /></g><g
                   id="g1729"><path
                     d="m 71.227,78.755 c -1.213,0 -2.197,-0.981 -2.197,-2.198 0,-1.214 0.984,-2.199 2.197,-2.199 1.217,0 2.2,0.985 2.2,2.199 0,1.214 -0.984,2.198 -2.2,2.198 z"
                     id="path1723" /><path
                     d="m 71.227,84.066 c -1.213,0 -2.197,-0.982 -2.197,-2.199 0,-1.215 0.984,-2.199 2.197,-2.199 1.217,0 2.2,0.984 2.2,2.199 0,1.217 -0.984,2.199 -2.2,2.199 z"
                     id="path1725" /><path
                     d="m 71.227,89.378 c -1.213,0 -2.197,-0.983 -2.197,-2.2 0,-1.213 0.984,-2.199 2.197,-2.199 1.217,0 2.2,0.986 2.2,2.199 0,1.217 -0.984,2.2 -2.2,2.2 z"
                     id="path1727" /></g><g
                   id="g1737"><circle
                     cx="65.920998"
                     cy="76.556"
                     r="2.1989999"
                     id="circle1731" /><circle
                     cx="65.920998"
                     cy="81.866997"
                     r="2.1989999"
                     id="circle1733" /><circle
                     cx="65.920998"
                     cy="87.178001"
                     r="2.2"
                     id="circle1735" /></g><g
                   id="g1749"><circle
                     cx="60.611"
                     cy="76.556"
                     r="2.1989999"
                     id="circle1739" /><circle
                     cx="60.611"
                     cy="81.866997"
                     r="2.1989999"
                     id="circle1741" /><circle
                     cx="60.611"
                     cy="87.178001"
                     r="2.2"
                     id="circle1743" /><circle
                     cx="60.611"
                     cy="92.488998"
                     r="2.1989999"
                     id="circle1745" /><path
                     d="m 60.611,100 c -1.213,0 -2.198,-0.982 -2.198,-2.195 0,-1.218 0.985,-2.199 2.198,-2.199 1.216,0 2.201,0.981 2.201,2.199 0.001,1.213 -0.985,2.195 -2.201,2.195 z"
                     id="path1747" /></g><g
                   id="g1761"><circle
                     cx="55.306999"
                     cy="76.556"
                     r="2.1989999"
                     id="circle1751" /><circle
                     cx="55.306999"
                     cy="81.866997"
                     r="2.1989999"
                     id="circle1753" /><circle
                     cx="55.306999"
                     cy="87.178001"
                     r="2.2"
                     id="circle1755" /><circle
                     cx="55.306999"
                     cy="92.488998"
                     r="2.1989999"
                     id="circle1757" /><path
                     d="m 55.307,100 c -1.214,0 -2.199,-0.982 -2.199,-2.195 0,-1.218 0.985,-2.199 2.199,-2.199 1.215,0 2.2,0.981 2.2,2.199 0,1.213 -0.986,2.195 -2.2,2.195 z"
                     id="path1759" /></g><g
                   id="g1791"><circle
                     cx="49.999001"
                     cy="2.198"
                     r="2.198"
                     id="circle1763" /><circle
                     cx="49.999001"
                     cy="7.5079999"
                     r="2.1989999"
                     id="circle1765" /><circle
                     cx="49.999001"
                     cy="12.82"
                     r="2.1989999"
                     id="circle1767" /><circle
                     cx="49.999001"
                     cy="18.132"
                     r="2.2"
                     id="circle1769" /><path
                     d="m 49.999,25.645 c -1.213,0 -2.196,-0.989 -2.196,-2.201 0,-1.215 0.983,-2.2 2.196,-2.2 1.214,0 2.201,0.984 2.201,2.2 -0.001,1.211 -0.987,2.201 -2.201,2.201 z"
                     id="path1771" /><circle
                     cx="49.999001"
                     cy="28.754"
                     r="2.198"
                     id="circle1773" /><circle
                     cx="49.999001"
                     cy="34.064999"
                     r="2.198"
                     id="circle1775" /><circle
                     cx="49.999001"
                     cy="39.376999"
                     r="2.1989999"
                     id="circle1777" /><path
                     d="m 49.999,46.886 c -1.213,0 -2.196,-0.982 -2.196,-2.196 0,-1.217 0.983,-2.2 2.196,-2.2 1.214,0 2.201,0.983 2.201,2.2 -0.001,1.213 -0.987,2.196 -2.201,2.196 z"
                     id="path1779" /><circle
                     cx="49.999001"
                     cy="50"
                     r="2.2"
                     id="circle1781" /><path
                     d="m 49.999,57.511 c -1.213,0 -2.196,-0.985 -2.196,-2.202 0,-1.214 0.983,-2.195 2.196,-2.195 1.214,0 2.201,0.981 2.201,2.195 -0.001,1.214 -0.987,2.202 -2.201,2.202 z"
                     id="path1783" /><circle
                     cx="49.999001"
                     cy="60.623001"
                     r="2.2"
                     id="circle1785" /><circle
                     cx="49.999001"
                     cy="65.933998"
                     r="2.1989999"
                     id="circle1787" /><circle
                     cx="49.999001"
                     cy="71.245003"
                     r="2.2"
                     id="circle1789" /></g><g
                   id="g1817"><circle
                     cx="44.694"
                     cy="12.82"
                     r="2.1989999"
                     id="circle1793" /><circle
                     cx="44.694"
                     cy="18.132"
                     r="2.2"
                     id="circle1795" /><path
                     d="m 44.694,25.645 c -1.213,0 -2.2,-0.989 -2.2,-2.201 0,-1.215 0.986,-2.2 2.2,-2.2 1.214,0 2.198,0.984 2.198,2.2 0,1.211 -0.985,2.201 -2.198,2.201 z"
                     id="path1797" /><circle
                     cx="44.694"
                     cy="28.754"
                     r="2.198"
                     id="circle1799" /><circle
                     cx="44.694"
                     cy="34.064999"
                     r="2.198"
                     id="circle1801" /><circle
                     cx="44.694"
                     cy="39.376999"
                     r="2.1989999"
                     id="circle1803" /><path
                     d="m 44.694,46.886 c -1.213,0 -2.2,-0.982 -2.2,-2.196 0,-1.217 0.986,-2.2 2.2,-2.2 1.214,0 2.198,0.983 2.198,2.2 0,1.213 -0.985,2.196 -2.198,2.196 z"
                     id="path1805" /><circle
                     cx="44.694"
                     cy="50"
                     r="2.2"
                     id="circle1807" /><path
                     d="m 44.694,57.511 c -1.213,0 -2.2,-0.985 -2.2,-2.202 0,-1.214 0.986,-2.195 2.2,-2.195 1.214,0 2.198,0.981 2.198,2.195 0,1.214 -0.985,2.202 -2.198,2.202 z"
                     id="path1809" /><circle
                     cx="44.694"
                     cy="60.623001"
                     r="2.2"
                     id="circle1811" /><circle
                     cx="44.694"
                     cy="65.933998"
                     r="2.1989999"
                     id="circle1813" /><circle
                     cx="44.694"
                     cy="71.245003"
                     r="2.2"
                     id="circle1815" /></g><g
                   id="g1839"><path
                     d="m 39.386,25.645 c -1.21,0 -2.196,-0.989 -2.196,-2.201 0,-1.215 0.986,-2.2 2.196,-2.2 1.213,0 2.199,0.984 2.199,2.2 0,1.211 -0.986,2.201 -2.199,2.201 z"
                     id="path1819" /><path
                     d="m 39.386,30.953 c -1.21,0 -2.196,-0.984 -2.196,-2.198 0,-1.217 0.986,-2.199 2.196,-2.199 1.213,0 2.199,0.982 2.199,2.199 0,1.213 -0.986,2.198 -2.199,2.198 z"
                     id="path1821" /><path
                     d="m 39.386,36.264 c -1.21,0 -2.196,-0.986 -2.196,-2.199 0,-1.213 0.986,-2.198 2.196,-2.198 1.213,0 2.199,0.984 2.199,2.198 0,1.214 -0.986,2.199 -2.199,2.199 z"
                     id="path1823" /><path
                     d="m 39.386,41.577 c -1.21,0 -2.196,-0.986 -2.196,-2.2 0,-1.216 0.986,-2.199 2.196,-2.199 1.213,0 2.199,0.983 2.199,2.199 0,1.213 -0.986,2.2 -2.199,2.2 z"
                     id="path1825" /><path
                     d="m 39.386,46.886 c -1.21,0 -2.196,-0.982 -2.196,-2.196 0,-1.217 0.986,-2.2 2.196,-2.2 1.213,0 2.199,0.983 2.199,2.2 0,1.213 -0.986,2.196 -2.199,2.196 z"
                     id="path1827" /><path
                     d="m 39.386,52.199 c -1.21,0 -2.196,-0.986 -2.196,-2.2 0,-1.215 0.986,-2.2 2.196,-2.2 1.213,0 2.199,0.984 2.199,2.2 0,1.214 -0.986,2.2 -2.199,2.2 z"
                     id="path1829" /><path
                     d="m 39.386,57.511 c -1.21,0 -2.196,-0.985 -2.196,-2.202 0,-1.214 0.986,-2.195 2.196,-2.195 1.213,0 2.199,0.981 2.199,2.195 0,1.214 -0.986,2.202 -2.199,2.202 z"
                     id="path1831" /><path
                     d="m 39.386,62.822 c -1.21,0 -2.196,-0.983 -2.196,-2.2 0,-1.216 0.986,-2.199 2.196,-2.199 1.213,0 2.199,0.983 2.199,2.199 0,1.217 -0.986,2.2 -2.199,2.2 z"
                     id="path1833" /><path
                     d="m 39.386,68.133 c -1.21,0 -2.196,-0.986 -2.196,-2.199 0,-1.217 0.986,-2.199 2.196,-2.199 1.213,0 2.199,0.982 2.199,2.199 0,1.212 -0.986,2.199 -2.199,2.199 z"
                     id="path1835" /><path
                     d="m 39.386,73.443 c -1.21,0 -2.196,-0.985 -2.196,-2.198 0,-1.214 0.986,-2.2 2.196,-2.2 1.213,0 2.199,0.986 2.199,2.2 0,1.213 -0.986,2.198 -2.199,2.198 z"
                     id="path1837" /></g><g
                   id="g1861"><path
                     d="m 34.081,25.645 c -1.217,0 -2.199,-0.989 -2.199,-2.201 0,-1.215 0.982,-2.2 2.199,-2.2 1.213,0 2.196,0.984 2.196,2.2 0,1.211 -0.983,2.201 -2.196,2.201 z"
                     id="path1841" /><circle
                     cx="34.081001"
                     cy="28.754"
                     r="2.198"
                     id="circle1843" /><circle
                     cx="34.081001"
                     cy="34.064999"
                     r="2.198"
                     id="circle1845" /><circle
                     cx="34.081001"
                     cy="39.376999"
                     r="2.1989999"
                     id="circle1847" /><path
                     d="m 34.081,46.886 c -1.217,0 -2.199,-0.982 -2.199,-2.196 0,-1.217 0.982,-2.2 2.199,-2.2 1.213,0 2.196,0.983 2.196,2.2 0,1.213 -0.983,2.196 -2.196,2.196 z"
                     id="path1849" /><circle
                     cx="34.081001"
                     cy="50"
                     r="2.2"
                     id="circle1851" /><path
                     d="m 34.081,57.511 c -1.217,0 -2.199,-0.985 -2.199,-2.202 0,-1.214 0.982,-2.195 2.199,-2.195 1.213,0 2.196,0.981 2.196,2.195 0,1.214 -0.983,2.202 -2.196,2.202 z"
                     id="path1853" /><circle
                     cx="34.081001"
                     cy="60.623001"
                     r="2.2"
                     id="circle1855" /><circle
                     cx="34.081001"
                     cy="65.933998"
                     r="2.1989999"
                     id="circle1857" /><circle
                     cx="34.081001"
                     cy="71.245003"
                     r="2.2"
                     id="circle1859" /></g><g
                   id="g1883"><path
                     d="m 28.773,25.645 c -1.213,0 -2.198,-0.989 -2.198,-2.201 0,-1.215 0.984,-2.2 2.198,-2.2 1.217,0 2.2,0.984 2.2,2.2 0,1.211 -0.983,2.201 -2.2,2.201 z"
                     id="path1863" /><path
                     d="m 28.773,30.953 c -1.213,0 -2.198,-0.984 -2.198,-2.198 0,-1.217 0.984,-2.199 2.198,-2.199 1.217,0 2.2,0.982 2.2,2.199 0,1.213 -0.983,2.198 -2.2,2.198 z"
                     id="path1865" /><path
                     d="m 28.773,36.264 c -1.213,0 -2.198,-0.986 -2.198,-2.199 0,-1.213 0.984,-2.198 2.198,-2.198 1.217,0 2.2,0.984 2.2,2.198 0,1.214 -0.983,2.199 -2.2,2.199 z"
                     id="path1867" /><path
                     d="m 28.773,41.577 c -1.213,0 -2.198,-0.986 -2.198,-2.2 0,-1.216 0.984,-2.199 2.198,-2.199 1.217,0 2.2,0.983 2.2,2.199 0,1.213 -0.983,2.2 -2.2,2.2 z"
                     id="path1869" /><path
                     d="m 28.773,46.886 c -1.213,0 -2.198,-0.982 -2.198,-2.196 0,-1.217 0.984,-2.2 2.198,-2.2 1.217,0 2.2,0.983 2.2,2.2 0,1.213 -0.983,2.196 -2.2,2.196 z"
                     id="path1871" /><path
                     d="m 28.773,52.199 c -1.213,0 -2.198,-0.986 -2.198,-2.2 0,-1.215 0.984,-2.2 2.198,-2.2 1.217,0 2.2,0.984 2.2,2.2 0,1.214 -0.983,2.2 -2.2,2.2 z"
                     id="path1873" /><path
                     d="m 28.773,57.511 c -1.213,0 -2.198,-0.985 -2.198,-2.202 0,-1.214 0.984,-2.195 2.198,-2.195 1.217,0 2.2,0.981 2.2,2.195 0,1.214 -0.983,2.202 -2.2,2.202 z"
                     id="path1875" /><path
                     d="m 28.773,62.822 c -1.213,0 -2.198,-0.983 -2.198,-2.2 0,-1.216 0.984,-2.199 2.198,-2.199 1.217,0 2.2,0.983 2.2,2.199 0,1.217 -0.983,2.2 -2.2,2.2 z"
                     id="path1877" /><path
                     d="m 28.773,68.133 c -1.213,0 -2.198,-0.986 -2.198,-2.199 0,-1.217 0.984,-2.199 2.198,-2.199 1.217,0 2.2,0.982 2.2,2.199 0,1.212 -0.983,2.199 -2.2,2.199 z"
                     id="path1879" /><path
                     d="m 28.773,73.443 c -1.213,0 -2.198,-0.985 -2.198,-2.198 0,-1.214 0.984,-2.2 2.198,-2.2 1.217,0 2.2,0.986 2.2,2.2 0,1.213 -0.983,2.198 -2.2,2.198 z"
                     id="path1881" /></g><g
                   id="g1899"><circle
                     cx="23.466999"
                     cy="18.132"
                     r="2.2"
                     id="circle1885" /><path
                     d="m 23.467,25.645 c -1.213,0 -2.199,-0.989 -2.199,-2.201 0,-1.215 0.986,-2.2 2.199,-2.2 1.215,0 2.201,0.984 2.201,2.2 -10e-4,1.211 -0.986,2.201 -2.201,2.201 z"
                     id="path1887" /><circle
                     cx="23.466999"
                     cy="34.064999"
                     r="2.198"
                     id="circle1889" /><circle
                     cx="23.466999"
                     cy="39.376999"
                     r="2.1989999"
                     id="circle1891" /><path
                     d="m 23.467,46.886 c -1.213,0 -2.199,-0.982 -2.199,-2.196 0,-1.217 0.986,-2.2 2.199,-2.2 1.215,0 2.201,0.983 2.201,2.2 -10e-4,1.213 -0.986,2.196 -2.201,2.196 z"
                     id="path1893" /><circle
                     cx="23.466999"
                     cy="50"
                     r="2.2"
                     id="circle1895" /><path
                     d="m 23.467,57.511 c -1.213,0 -2.199,-0.985 -2.199,-2.202 0,-1.214 0.986,-2.195 2.199,-2.195 1.215,0 2.201,0.981 2.201,2.195 -10e-4,1.214 -0.986,2.202 -2.201,2.202 z"
                     id="path1897" /></g><g
                   id="g1907"><circle
                     cx="18.160999"
                     cy="34.064999"
                     r="2.198"
                     id="circle1901" /><circle
                     cx="18.160999"
                     cy="39.376999"
                     r="2.1989999"
                     id="circle1903" /><path
                     d="m 18.161,46.886 c -1.216,0 -2.199,-0.982 -2.199,-2.196 0,-1.217 0.983,-2.2 2.199,-2.2 1.212,0 2.199,0.983 2.199,2.2 0,1.213 -0.986,2.196 -2.199,2.196 z"
                     id="path1905" /></g><g
                   id="g1915"><circle
                     cx="12.853"
                     cy="28.754"
                     r="2.198"
                     id="circle1909" /><circle
                     cx="12.853"
                     cy="34.064999"
                     r="2.198"
                     id="circle1911" /><circle
                     cx="12.853"
                     cy="39.376999"
                     r="2.1989999"
                     id="circle1913" /></g><g
                   id="g1923"><circle
                     cx="7.5479999"
                     cy="28.754"
                     r="2.198"
                     id="circle1917" /><circle
                     cx="7.5479999"
                     cy="34.064999"
                     r="2.198"
                     id="circle1919" /><circle
                     cx="7.5479999"
                     cy="39.376999"
                     r="2.1989999"
                     id="circle1921" /></g><g
                   id="g1929"><path
                     d="m 2.242,36.264 c -1.216,0 -2.202,-0.986 -2.202,-2.199 0,-1.213 0.986,-2.198 2.202,-2.198 1.212,0 2.195,0.984 2.195,2.198 0,1.214 -0.983,2.199 -2.195,2.199 z"
                     id="path1925" /><path
                     d="m 2.242,41.577 c -1.216,0 -2.202,-0.986 -2.202,-2.2 0,-1.216 0.986,-2.199 2.202,-2.199 1.212,0 2.195,0.983 2.195,2.199 10e-4,1.213 -0.983,2.2 -2.195,2.2 z"
                     id="path1927" /></g><g
                   id="g1941"><circle
                     cx="49.999001"
                     cy="76.556"
                     r="2.1989999"
                     id="circle1931" /><circle
                     cx="49.999001"
                     cy="81.866997"
                     r="2.1989999"
                     id="circle1933" /><circle
                     cx="49.999001"
                     cy="87.178001"
                     r="2.2"
                     id="circle1935" /><circle
                     cx="49.999001"
                     cy="92.488998"
                     r="2.1989999"
                     id="circle1937" /><path
                     d="m 49.999,100 c -1.213,0 -2.196,-0.982 -2.196,-2.195 0,-1.218 0.983,-2.199 2.196,-2.199 1.214,0 2.201,0.981 2.201,2.199 C 52.199,99.018 51.213,100 49.999,100 Z"
                     id="path1939" /></g><g
                   id="g1953"><circle
                     cx="44.694"
                     cy="76.556"
                     r="2.1989999"
                     id="circle1943" /><circle
                     cx="44.694"
                     cy="81.866997"
                     r="2.1989999"
                     id="circle1945" /><circle
                     cx="44.694"
                     cy="87.178001"
                     r="2.2"
                     id="circle1947" /><circle
                     cx="44.694"
                     cy="92.488998"
                     r="2.1989999"
                     id="circle1949" /><path
                     d="m 44.694,100 c -1.213,0 -2.2,-0.982 -2.2,-2.195 0,-1.218 0.986,-2.199 2.2,-2.199 1.214,0 2.198,0.981 2.198,2.199 0,1.213 -0.985,2.195 -2.198,2.195 z"
                     id="path1951" /></g><g
                   id="g1963"><path
                     d="m 39.386,78.755 c -1.21,0 -2.196,-0.981 -2.196,-2.198 0,-1.214 0.986,-2.199 2.196,-2.199 1.213,0 2.199,0.985 2.199,2.199 0,1.214 -0.986,2.198 -2.199,2.198 z"
                     id="path1955" /><path
                     d="m 39.386,84.066 c -1.21,0 -2.196,-0.982 -2.196,-2.199 0,-1.215 0.986,-2.199 2.196,-2.199 1.213,0 2.199,0.984 2.199,2.199 0,1.217 -0.986,2.199 -2.199,2.199 z"
                     id="path1957" /><path
                     d="m 39.386,89.378 c -1.21,0 -2.196,-0.983 -2.196,-2.2 0,-1.213 0.986,-2.199 2.196,-2.199 1.213,0 2.199,0.986 2.199,2.199 0,1.217 -0.986,2.2 -2.199,2.2 z"
                     id="path1959" /><path
                     d="m 39.386,94.688 c -1.21,0 -2.196,-0.985 -2.196,-2.198 0,-1.214 0.986,-2.199 2.196,-2.199 1.213,0 2.199,0.985 2.199,2.199 0,1.212 -0.986,2.198 -2.199,2.198 z"
                     id="path1961" /></g><g
                   id="g1973"><circle
                     cx="34.081001"
                     cy="76.556"
                     r="2.1989999"
                     id="circle1965" /><circle
                     cx="34.081001"
                     cy="81.866997"
                     r="2.1989999"
                     id="circle1967" /><circle
                     cx="34.081001"
                     cy="87.178001"
                     r="2.2"
                     id="circle1969" /><circle
                     cx="34.081001"
                     cy="92.488998"
                     r="2.1989999"
                     id="circle1971" /></g><g
                   id="g1983"><path
                     d="m 28.773,78.755 c -1.213,0 -2.198,-0.981 -2.198,-2.198 0,-1.214 0.984,-2.199 2.198,-2.199 1.217,0 2.2,0.985 2.2,2.199 0,1.214 -0.983,2.198 -2.2,2.198 z"
                     id="path1975" /><path
                     d="m 28.773,84.066 c -1.213,0 -2.198,-0.982 -2.198,-2.199 0,-1.215 0.984,-2.199 2.198,-2.199 1.217,0 2.2,0.984 2.2,2.199 0,1.217 -0.983,2.199 -2.2,2.199 z"
                     id="path1977" /><path
                     d="m 28.773,89.378 c -1.213,0 -2.198,-0.983 -2.198,-2.2 0,-1.213 0.984,-2.199 2.198,-2.199 1.217,0 2.2,0.986 2.2,2.199 0,1.217 -0.983,2.2 -2.2,2.2 z"
                     id="path1979" /><path
                     d="m 28.773,94.688 c -1.213,0 -2.198,-0.985 -2.198,-2.198 0,-1.214 0.984,-2.199 2.198,-2.199 1.217,0 2.2,0.985 2.2,2.199 0,1.212 -0.983,2.198 -2.2,2.198 z"
                     id="path1981" /></g><g
                   id="g1987"><circle
                     cx="23.466999"
                     cy="87.178001"
                     r="2.2"
                     id="circle1985" /></g></g></g></g></g></g></g><rect
       style="fill:none;fill-opacity:1;stroke:#000000;stroke-width:3;stroke-linejoin:miter;stroke-miterlimit:0;stroke-dasharray:none;stroke-opacity:1"
       id="rect933"
       width="163.5"
       height="163.5"
       x="79.794899"
       y="-256.2453"
       transform="scale(1,-1)" /></g></svg>
